<svg xmlns="http://www.w3.org/2000/svg" viewBox="0 0 64 64" role="img" aria-label="Sara Yusri">
  <rect width="64" height="64" rx="14" fill="#f7f2ea"/>
  <rect x="6" y="6" width="52" height="52" rx="10" fill="none" stroke="#211f1d" stroke-opacity=".22" stroke-width="2"/>
  <path d="M18.5 40.8c2.4 2.2 5.1 3.3 8.1 3.3 3.3 0 5.3-1.3 5.3-3.5 0-2-1.5-3-5.7-4.1-5.1-1.3-7.8-3.6-7.8-7.8 0-4.7 3.8-7.8 9.4-7.8 3.4 0 6.4 1 8.7 2.9l-2.4 4.1c-2-1.6-4.1-2.4-6.4-2.4-2.8 0-4.5 1.2-4.5 3.1 0 1.8 1.5 2.7 5.4 3.7 5.6 1.4 8.1 3.9 8.1 8 0 5-3.8 8.4-10.1 8.4-4 0-7.8-1.4-10.5-4.1l2.4-3.8Z" fill="#211f1d"/>
  <path d="M38.4 21.4h5.5l5.7 10.7 5.7-10.7h5.3L52 36.8v11.1h-4.9v-11L38.4 21.4Z" fill="#b76d62"/>
</svg>
